<?xml version="1.0" encoding="utf-8"?>
<!-- Svg Vector Icons : http://www.onlinewebfonts.com/icon -->
<!DOCTYPE svg PUBLIC "-//W3C//DTD SVG 1.1//EN" "http://www.w3.org/Graphics/SVG/1.1/DTD/svg11.dtd">
<svg version="1.1" xmlns="http://www.w3.org/2000/svg" xmlns:xlink="http://www.w3.org/1999/xlink" x="0px" y="0px" viewBox="0 0 1000 1000" enable-background="new 0 0 1000 1000" xml:space="preserve">
<metadata> Svg Vector Icons : http://www.onlinewebfonts.com/icon </metadata>
<g><g transform="translate(0.000000,511.000000) scale(0.100000,-0.100000)"><path d="M4557.6,4998.6c-951-92.4-1830.7-442.8-2598.8-1037.6c-369.6-284.9-847-818.1-1124.2-1253.2c-121.3-190.6-358.1-675.7-442.7-906.7c-94.3-259.9-196.4-654.5-246.4-960.6c-59.7-379.2-61.6-1070.3,0-1453.4c86.6-539,217.5-958.7,454.3-1443.8c248.3-508.2,525.5-891.3,945.2-1309c406.2-406.2,785.4-677.6,1289.8-924c481.3-234.9,904.8-369.6,1434.1-456.2c375.4-59.7,1066.5-59.7,1453.4,0c525.5,82.8,956.7,217.5,1443.8,456.2c968.3,471.6,1757.5,1260.9,2233,2233c236.8,485.1,373.5,918.2,456.2,1443.8c59.7,386.9,59.7,1078,0,1453.4c-86.6,529.4-221.4,952.9-456.2,1434.1c-246.4,504.4-517.8,883.6-924,1289.8c-417.7,419.6-800.8,696.9-1309,945.2c-481.3,234.8-906.7,369.6-1426.4,450.4C5458.5,5004.4,4827.1,5025.6,4557.6,4998.6z M5425.8,4459.6C7218,4282.5,8734.9,3010.1,9208.4,1287.2c119.3-438.9,150.2-668,150.2-1168.5c1.9-498.6-21.2-687.2-134.8-1126.1c-392.7-1511.1-1595.8-2714.3-3107-3107c-438.9-113.6-627.6-136.7-1126.1-134.8c-363.8,0-485.1,7.7-683.4,42.4c-937.5,161.7-1746,575.6-2396.6,1226.2c-1707.5,1707.5-1707.5,4471.8,0,6179.3C2836.7,4124.7,4128.3,4586.7,5425.8,4459.6z"/><path d="M3966.6,3054.4c-57.8-23.1-444.7-400.4-479.3-465.9c-15.4-28.9-26.9-88.5-26.9-134.8c0-80.8,3.9-84.7,429.3-506.3c234.9-234.9,752.7-743.1,1149.2-1131.9l721.9-706.5l-712.3-696.9c-390.8-383.1-908.6-891.3-1149.2-1131.9c-435-431.2-438.9-435-438.9-515.9c0-46.2,11.6-105.9,26.9-134.8c36.6-71.2,425.4-442.8,485.1-465.9c67.4-27,161.7-23.1,215.6,5.8c23.1,13.5,683.4,650.7,1466.9,1414.9C6792.5-304.8,7081.3-12.2,7096.7,41.7c40.4,148.2,78.9,105.9-1441.8,1592C4871.4,2397.9,4211.1,3035.1,4188,3048.6C4138,3075.5,4028.2,3079.4,3966.6,3054.4z"/></g></g>
</svg>